<?xml version="1.0" encoding="UTF-8"?>
<svg version="1.1" xmlns="http://www.w3.org/2000/svg" xmlns:xlink="http://www.w3.org/1999/xlink">
    
    <!-- <symbol id="arrow_right" viewBox="0 0 20 20">
        <path d="M19.354 10.146l-6-6c-0.195-0.195-0.512-0.195-0.707 0s-0.195 0.512 0 0.707l5.146 5.146h-16.293c-0.276 0-0.5 0.224-0.5 0.5s0.224 0.5 0.5 0.5h16.293l-5.146 5.146c-0.195 0.195-0.195 0.512 0 0.707 0.098 0.098 0.226 0.146 0.354 0.146s0.256-0.049 0.354-0.146l6-6c0.195-0.195 0.195-0.512 0-0.707z" fill="currentcolor"></path>
    </symbol> -->

    <symbol id="arrow_right" viewBox="0 0 20 20">
        <path d="M5 20c-0.128 0-0.256-0.049-0.354-0.146-0.195-0.195-0.195-0.512 0-0.707l8.646-8.646-8.646-8.646c-0.195-0.195-0.195-0.512 0-0.707s0.512-0.195 0.707 0l9 9c0.195 0.195 0.195 0.512 0 0.707l-9 9c-0.098 0.098-0.226 0.146-0.354 0.146z" fill="currentcolor"></path>
    </symbol>

    <symbol id="feather" viewBox="0 0 20 20">
        <path d="M4.501 15c-0.017 0-0.034-0.001-0.052-0.003-0.273-0.028-0.472-0.271-0.447-0.544 0.239-2.52 1.062-4.786 2.449-6.734 1.138-1.599 2.649-2.982 4.493-4.11 3.19-1.952 6.524-2.609 7.556-2.609 0.276 0 0.5 0.224 0.5 0.5 0 0.944-0.877 1.821-1.252 2.196-0.611 0.611-1.712 0.993-2.777 1.363-0.031 0.011-0.062 0.022-0.093 0.032 0.682-0.034 1.269-0.039 1.557-0.039 0.065 0 0.101 0 0.101 0 0.186 0.002 0.355 0.106 0.44 0.271s0.072 0.363-0.035 0.516c-0.8 1.145-1.776 2.037-2.983 2.727-0.579 0.331-1.217 0.485-2.009 0.485-0.462 0-0.926-0.052-1.375-0.102-0.433-0.048-0.881-0.098-1.309-0.098-0.774 0-1.363 0.162-1.909 0.526-0.017 0.012-0.035 0.022-0.054 0.031-0.725 0.362-1.352 1.351-1.815 2.859-0.367 1.196-0.49 2.278-0.491 2.289-0.028 0.255-0.245 0.445-0.496 0.445zM17.805 2.068c-1.305 0.2-3.851 0.872-6.338 2.394-1.376 0.842-2.917 2.068-4.157 3.794 0.576-0.275 1.211-0.405 1.956-0.405 0.484 0 0.96 0.053 1.42 0.104 0.442 0.049 0.859 0.096 1.265 0.096 0.611 0 1.091-0.112 1.513-0.353 0.789-0.451 1.45-0.98 2.028-1.629-0.928 0.029-2.277 0.11-3.125 0.336-0.201 0.054-0.414-0.023-0.535-0.192s-0.125-0.395-0.010-0.568c0.477-0.715 1.616-1.111 2.823-1.53 0.958-0.333 1.949-0.677 2.398-1.126 0.158-0.158 0.532-0.532 0.763-0.921z" fill="currentcolor"></path>
        <path d="M7.568 16.925c-0.006-0.006-0.568-0.641-0.568-1.425 0-0.36-0.193-0.701-0.544-0.961-0.222-0.164-0.535-0.117-0.699 0.105s-0.117 0.535 0.105 0.699c0.114 0.084 0.139 0.146 0.139 0.157 0 0.017-0.054 0.132-0.309 0.26-0.305 0.153-0.739 0.24-1.191 0.24s-0.885-0.088-1.191-0.24c-0.256-0.128-0.309-0.243-0.309-0.26 0-0.008 0.016-0.054 0.095-0.122 0.209-0.181 0.232-0.496 0.051-0.705s-0.496-0.232-0.705-0.051c-0.364 0.315-0.441 0.651-0.441 0.878 0 0.785-0.564 1.42-0.568 1.425-0.543 0.593-0.543 1.557 0 2.15 0.087 0.095 0.91 0.925 3.068 0.925s2.981-0.83 3.068-0.925c0.543-0.593 0.543-1.557 0-2.15zM6.831 18.399c-0.006 0.006-0.627 0.601-2.331 0.601-1.656 0-2.293-0.566-2.336-0.606-0.19-0.214-0.188-0.582 0.005-0.793 0.022-0.024 0.366-0.405 0.604-0.993 0.029 0.016 0.058 0.032 0.089 0.047 0.446 0.223 1.027 0.346 1.638 0.346s1.192-0.123 1.638-0.346c0.030-0.015 0.060-0.031 0.089-0.047 0.238 0.588 0.582 0.969 0.604 0.993 0.195 0.213 0.195 0.586 0 0.799z" fill="currentcolor"></path>
    </symbol>

    <symbol id="graduation_hat" viewBox="0 0 20 20">
        <path d="M18.658 7.026l-9-3c-0.103-0.034-0.214-0.034-0.316 0l-9 3c-0.204 0.068-0.342 0.259-0.342 0.474s0.138 0.406 0.342 0.474l2.658 0.886v2.64c0 0.133 0.053 0.26 0.146 0.354 0.088 0.088 2.194 2.146 6.354 2.146 1.513 0 2.924-0.272 4.195-0.809 0.254-0.107 0.373-0.401 0.266-0.655s-0.401-0.373-0.655-0.266c-1.147 0.485-2.427 0.73-3.805 0.73-1.945 0-3.376-0.504-4.234-0.926-0.635-0.313-1.060-0.629-1.266-0.799v-2.081l5.342 1.781c0.051 0.017 0.105 0.026 0.158 0.026s0.107-0.009 0.158-0.026l5.342-1.781v0.892c-0.582 0.206-1 0.762-1 1.414 0 0.611 0.367 1.137 0.892 1.371l-0.877 3.508c-0.037 0.149-0.004 0.308 0.091 0.429s0.24 0.192 0.394 0.192h2c0.154 0 0.299-0.071 0.394-0.192s0.128-0.28 0.091-0.429l-0.877-3.508c0.525-0.234 0.892-0.76 0.892-1.371 0-0.652-0.418-1.208-1-1.414v-1.226l2.658-0.886c0.204-0.068 0.342-0.259 0.342-0.474s-0.138-0.406-0.342-0.474zM15.5 11c0.276 0 0.5 0.224 0.5 0.5s-0.224 0.5-0.5 0.5-0.5-0.224-0.5-0.5 0.224-0.5 0.5-0.5zM15.14 16l0.36-1.438 0.36 1.438h-0.719zM15.46 7.986l-5.877-0.98c-0.273-0.045-0.53 0.139-0.575 0.411s0.139 0.53 0.411 0.575l4.014 0.669-3.932 1.311-7.419-2.473 7.419-2.473 7.419 2.473-1.459 0.486z" fill="currentcolor"></path>
    </symbol>

    <symbol id="map_marker" viewBox="0 0 20 20">
        <path d="M10 20c-0.153 0-0.298-0.070-0.393-0.191-0.057-0.073-1.418-1.814-2.797-4.385-0.812-1.513-1.46-2.999-1.925-4.416-0.587-1.787-0.884-3.472-0.884-5.008 0-3.308 2.692-6 6-6s6 2.692 6 6c0 1.536-0.298 3.22-0.884 5.008-0.465 1.417-1.113 2.903-1.925 4.416-1.38 2.571-2.74 4.312-2.797 4.385-0.095 0.121-0.24 0.191-0.393 0.191zM10 1c-2.757 0-5 2.243-5 5 0 3.254 1.463 6.664 2.691 8.951 0.902 1.681 1.809 3.014 2.309 3.71 0.502-0.699 1.415-2.040 2.318-3.726 1.223-2.283 2.682-5.687 2.682-8.935 0-2.757-2.243-5-5-5z" fill="currentcolor"></path>
        <path d="M10 9c-1.654 0-3-1.346-3-3s1.346-3 3-3 3 1.346 3 3-1.346 3-3 3zM10 4c-1.103 0-2 0.897-2 2s0.897 2 2 2c1.103 0 2-0.897 2-2s-0.897-2-2-2z" fill="currentcolor"></path>
    </symbol>

    <symbol id="map" viewBox="0 0 20 20">
        <path d="M18.763 1.075c-0.147-0.091-0.331-0.099-0.486-0.022l-5.776 2.888-5.776-2.888c-0.141-0.070-0.306-0.070-0.447 0l-6 3c-0.169 0.085-0.276 0.258-0.276 0.447v15c0 0.173 0.090 0.334 0.237 0.425 0.080 0.050 0.171 0.075 0.263 0.075 0.076 0 0.153-0.018 0.224-0.053l5.776-2.888 5.776 2.888c0.141 0.070 0.307 0.070 0.447 0l6-3c0.169-0.085 0.276-0.258 0.276-0.447v-15c-0-0.173-0.090-0.334-0.237-0.425zM6 16.191l-5 2.5v-13.882l5-2.5v13.882zM7 2.309l5 2.5v13.882l-5-2.5v-13.882zM18 16.191l-5 2.5v-13.882l5-2.5v13.882z" fill="currentcolor"></path>
    </symbol>

    <symbol id="bubbles" viewBox="0 0 20 20">
        <path d="M19.501 18c-0-0-0-0-0.001 0-1.341 0-2.734-0.856-3.247-1.206-0.563 0.136-1.151 0.206-1.753 0.206-1.437 0-2.795-0.396-3.822-1.116-1.082-0.757-1.678-1.782-1.678-2.884s0.596-2.127 1.678-2.884c1.028-0.719 2.385-1.116 3.822-1.116s2.795 0.396 3.822 1.116c1.082 0.757 1.678 1.782 1.678 2.884 0 0.964-0.461 1.877-1.306 2.597 0.082 0.231 0.339 0.727 1.145 1.535 0.099 0.091 0.161 0.222 0.161 0.368 0 0.276-0.224 0.5-0.5 0.5zM16.353 15.752c0.108 0 0.214 0.035 0.302 0.101 0.010 0.007 0.675 0.504 1.503 0.842-0.544-0.795-0.53-1.248-0.481-1.438 0.029-0.109 0.093-0.205 0.183-0.273 0.735-0.552 1.139-1.256 1.139-1.984 0-0.767-0.444-1.5-1.251-2.065-0.861-0.603-2.015-0.935-3.249-0.935s-2.388 0.332-3.249 0.935c-0.807 0.565-1.251 1.298-1.251 2.065s0.444 1.5 1.251 2.065c0.861 0.603 2.015 0.935 3.249 0.935 0.595 0 1.173-0.077 1.718-0.23 0.044-0.012 0.090-0.018 0.135-0.018z" fill="currentcolor"></path>
        <path d="M0.5 19c-0.225 0-0.422-0.15-0.482-0.367s0.032-0.447 0.225-0.562c1.691-1.014 2.392-2.489 2.641-3.179-1.838-1.407-2.884-3.354-2.884-5.392 0-1.029 0.258-2.026 0.768-2.964 0.486-0.894 1.18-1.695 2.061-2.381 1.787-1.39 4.156-2.156 6.671-2.156 2.278 0 4.481 0.644 6.202 1.814 1.735 1.179 2.871 2.811 3.199 4.595 0.050 0.272-0.13 0.532-0.401 0.582s-0.532-0.13-0.582-0.401c-0.279-1.519-1.266-2.921-2.778-3.949-1.557-1.058-3.56-1.641-5.64-1.641-4.687 0-8.5 2.916-8.5 6.5 0 1.815 1.005 3.562 2.756 4.792 0.172 0.121 0.25 0.336 0.196 0.539-0.117 0.436-0.515 1.633-1.58 2.788 1.302-0.456 2.704-1.247 3.739-1.959 0.123-0.085 0.277-0.11 0.421-0.069 0.948 0.271 1.947 0.409 2.968 0.409 0.276 0 0.5 0.224 0.5 0.5s-0.224 0.5-0.5 0.5c-1.033 0-2.047-0.129-3.016-0.385-0.429 0.286-1.231 0.793-2.189 1.27-1.488 0.74-2.764 1.115-3.794 1.115z" fill="currentcolor"></path>
    </symbol>    

    <symbol id="cross" viewBox="0 0 20 20">
        <path d="M10.707 10.5l5.646-5.646c0.195-0.195 0.195-0.512 0-0.707s-0.512-0.195-0.707 0l-5.646 5.646-5.646-5.646c-0.195-0.195-0.512-0.195-0.707 0s-0.195 0.512 0 0.707l5.646 5.646-5.646 5.646c-0.195 0.195-0.195 0.512 0 0.707 0.098 0.098 0.226 0.146 0.354 0.146s0.256-0.049 0.354-0.146l5.646-5.646 5.646 5.646c0.098 0.098 0.226 0.146 0.354 0.146s0.256-0.049 0.354-0.146c0.195-0.195 0.195-0.512 0-0.707l-5.646-5.646z" fill="currentcolor"></path>
    </symbol>

    <!-- <symbol id="logo-icon" viewBox="0 0 121.149 112" fill="none" stroke="none">
        
            <path id="Vector Union" d="M57.4812 69.1962L57.4812 85.5273L31.7835 81.8823C31.7835 81.8823 35.822 75.7244 35.7791 73.727C35.7361 71.7295 19.3397 55.3864 12.2 47.2675C5.06026 39.1487 2.03333 29.8696 2.03333 29.8696C2.03333 29.8696 1.18722 12.7027 0 0.148016C7.65206 -1.14783 7.26479 6.49103 7.26479 6.49103L9.73658 13.534L10.492 8.1405C10.492 8.1405 15.5883 6.06245 15.8009 11.9279C15.9511 16.0685 15.8892 25.2006 15.8399 30.2136L35.7791 47.2675C35.7791 47.2675 27.0097 37.9927 26.0944 33.9394C25.1792 29.8861 25.8859 25.8096 28.4667 25.4546C30.3083 25.6957 31.4871 28.4609 35.2579 31.342C40.2579 35.1622 41.6751 35.4713 51.3985 47.2675C61.1219 59.0637 57.4812 69.1962 57.4812 69.1962Z" style="fill:currentcolor;fill-rule:evenodd;mix-blend-mode:normal;" transform="translate(0 26.473)" />
            <path id="Vector Union" d="M0.667522 69.1962L0.667522 85.5273L26.3652 81.8823C26.3652 81.8823 22.3267 75.7244 22.3697 73.727C22.4126 71.7295 38.809 55.3864 45.9487 47.2675C53.0885 39.1487 56.1154 29.8696 56.1154 29.8696C56.1154 29.8696 56.9615 12.7027 58.1487 0.148016C50.4967 -1.14783 50.8839 6.49103 50.8839 6.49103L48.1887 14.1706L47.3745 8.3574C47.3745 8.3574 42.2782 6.27936 42.0656 12.1448C41.9152 16.2921 41.9775 25.447 42.0269 30.4547L22.3697 47.2675C22.3697 47.2675 31.139 37.9927 32.0543 33.9394C32.9695 29.8861 32.2628 25.8096 29.6821 25.4546C27.8404 25.6957 26.6616 28.4609 22.8908 31.342C17.8909 35.1622 16.4736 35.4713 6.75023 47.2675C-2.97315 59.0637 0.667522 69.1962 0.667522 69.1962Z" style="fill:currentcolor;fill-rule:evenodd;mix-blend-mode:normal;" transform="translate(63 26.473)" />
            <g id="Vector Mask" transform="translate(35.969 0)">
            <path id="Mask Subtract" d="M0.0652519 22.2609L7.33361 22.2609L11.9008 14.0296Q11.9484 13.9437 12.0043 13.8629Q12.0602 13.7821 12.1237 13.7071Q12.1872 13.6321 12.2577 13.5638Q12.3283 13.4954 12.4052 13.4343Q12.4821 13.3731 12.5647 13.3198Q12.6472 13.2665 12.7346 13.2216Q12.822 13.1766 12.9133 13.1405Q13.0047 13.1043 13.0991 13.0772Q13.1936 13.0502 13.2902 13.0325Q13.3869 13.0149 13.4848 13.0068Q13.5827 12.9987 13.681 13.0002Q13.7792 13.0018 13.8768 13.0129Q13.9745 13.0241 14.0705 13.0448Q14.1666 13.0655 14.2601 13.0955Q14.3537 13.1255 14.4439 13.1645Q14.534 13.2035 14.62 13.2512Q14.9023 13.4078 15.121 13.6454Q15.3397 13.8829 15.4725 14.1772L20.024 24.2609L24.3604 33.868L30.6961 24.2609L34.1096 19.0847Q34.2181 18.9203 34.3565 18.7801Q34.495 18.64 34.6581 18.5296Q34.8212 18.4191 35.0028 18.3427Q35.1843 18.2662 35.3772 18.2266Q35.5702 18.187 35.7672 18.1858Q35.9642 18.1846 36.1576 18.2219Q36.351 18.2591 36.5335 18.3334Q36.7159 18.4077 36.8803 18.5161Q37.1066 18.6654 37.285 18.8694L40.2499 22.2609L49.0375 22.2609C47.8305 9.76916 37.2043 0 24.4186 0C11.6328 0 1.24424 9.76916 0.0652519 22.2609ZM49.0998 26.2609L39.3418 26.2609Q39.1279 26.2609 38.9188 26.2156Q38.7097 26.1704 38.5149 26.0819Q38.3202 25.9935 38.1485 25.8659Q37.9768 25.7383 37.836 25.5772L36.6853 24.2609L36.0026 23.4799L35.4876 24.2609L25.7008 39.1011Q25.5446 39.338 25.3286 39.5221Q25.1127 39.7062 24.854 39.8229Q24.7645 39.8633 24.6714 39.8948Q24.5783 39.9262 24.4826 39.9484Q24.3868 39.9706 24.2894 39.9833Q24.192 39.9959 24.0938 39.999Q23.9956 40.0021 23.8975 39.9955Q23.7995 39.989 23.7026 39.9728Q23.6057 39.9567 23.5108 39.9311Q23.4159 39.9055 23.324 39.8708Q23.2321 39.8361 23.1441 39.7925Q23.056 39.7489 22.9726 39.6969Q22.8893 39.6449 22.8114 39.585Q22.7335 39.525 22.6619 39.4578Q22.5903 39.3905 22.5256 39.3165Q22.461 39.2426 22.4038 39.1626Q22.3467 39.0827 22.2977 38.9975Q22.2487 38.9124 22.2083 38.8228L15.6354 24.2609L13.4656 19.4538L10.7984 24.2609L10.26 25.2312Q10.1953 25.3477 10.1158 25.4546Q10.0363 25.5615 9.9433 25.6569Q9.85031 25.7523 9.74548 25.8345Q9.64066 25.9167 9.52585 25.9843Q9.41105 26.0519 9.28829 26.1037Q9.16553 26.1555 9.037 26.1905Q8.90846 26.2255 8.77641 26.2432Q8.64436 26.2609 8.51114 26.2609L7.72386e-07 26.2609C0.727611 38.8627 9.99964 46.2241 24.5527 53.9636C37.9813 45.9222 48.2859 38.8387 49.0998 26.2609Z" style="fill:currentcolor;fill-rule:evenodd;mix-blend-mode:normal;" />
            </g>
    </symbol> -->

    <!-- <symbol id="logo-icon" viewBox="0 0 65.004 69.018" fill="none" stroke="none">
        <g id="Group">
            <path id="Vector" d="M54 18.5C57.582 15.2351 59 12 59 12L41 0L20 2.5L3.5 16.5L0 32.5L8.5 52.5L28 62.5L45.5 61L57 53.5L58 50.5L54 45.5L51.5 45.5C51.5 45.5 44.283 52.8311 34.5 52.5C24.717 52.1689 19.5972 48.5462 16.5 45.5C13.4028 42.4538 9.83545 37.9433 11 29.5C12.1646 21.0567 16.418 12.4131 29.5 10.3571C37.7986 9.28924 44.926 11.509 54 18.5Z" style="fill:#FFFFFF;fill-rule:evenodd;mix-blend-mode:normal;" transform="translate(2.504 3.002)" />
            <path id="Vector Subtract" d="M65.0042 54.5023L56.2167 46.0405L54.0042 48.5021L59.0041 54.5023C59.0041 54.5023 50.0315 63.7833 35.5042 64.0021C20.9768 64.2208 5.18457 50.8446 5.00415 34.0022C4.82373 17.1598 19.7791 5.30584 35.5042 5.00206C51.2292 4.69828 59.0041 16.0021 59.0041 16.0021L54.0042 20.5021C54.0042 20.5021 51.9343 17.0891 46.0042 17.0021C40.074 16.915 36.5042 22.0021 36.5042 22.0021C36.5042 22.0021 33.1194 17.1079 26.0042 17.0021C18.8889 16.8963 13.9958 24.6414 14.0041 30.0021C14.0125 35.3627 17.5042 38.5021 17.5042 38.5021L36.5042 55.5021L55.0042 38.5021C55.0042 38.5021 58.6606 34.0868 59.0041 30.0021C59.3477 25.9173 57.5042 23.0021 57.5042 23.0021L65.0042 15.0021C65.0042 15.0021 53.2471 0.197601 35.5042 0.00211303C17.7613 -0.193374 0.317325 13.1901 0.00415071 34.0022C-0.309023 54.8143 17.1495 68.4391 35.5042 69.0023C53.859 69.5655 65.0042 54.5023 65.0042 54.5023ZM52.5043 34.5021L36.5956 48.4319C36.5956 48.4319 22.2464 35.1008 20.5042 33.5021C18.7621 31.9034 18.4863 22.737 25.0043 22.0021C31.5222 21.2671 32.7325 25.9912 33.0043 27.5021C33.276 29.0129 33.6322 30.8837 36.5956 31.0021C39.5341 31.1194 39.7837 29.1993 39.9988 27.5441L40.0043 27.5021C40.2209 25.8375 40.581 25.3343 41.5043 24.0021C42.4276 22.6698 48.996 18.9882 52.5043 25.0021C56.0126 31.016 52.5043 34.5021 52.5043 34.5021Z" style="fill:currentcolor;fill-rule:evenodd;mix-blend-mode:normal;" />
        </g>
    </symbol> -->

    <symbol id="logo-icon" viewBox="0 0 65.004 69.018" fill="none" stroke="none">
    <g id="Group">
        <path id="Path" d="M54 18.5C57.582 15.2351 59 12 59 12L41 0L20 2.5L3.5 16.5L0 32.5L8.5 52.5L28 62.5L45.5 61L57 53.5L58 50.5L54 45.5L51.5 45.5C51.5 45.5 44.283 52.8311 34.5 52.5C24.717 52.1689 19.5972 48.5462 16.5 45.5C13.4028 42.4538 9.83545 37.9433 11 29.5C12.1646 21.0567 16.418 12.4131 29.5 10.3571C37.7986 9.28924 44.926 11.509 54 18.5Z" fill="#FFFFFF" fill-rule="evenodd" transform="translate(2.504 3)" />
        <path id="Shape" d="M65.0043 54.5003L56.2167 46.0385L53.0042 49.5001L58.5042 54.5001C58.5042 54.5001 50.0315 63.7814 35.5042 64.0001C20.9768 64.2188 5.18457 50.8426 5.00415 34.0002C4.82373 17.1578 19.7791 5.30387 35.5042 5.00009C51.2293 4.69631 59.5042 15.0001 59.5042 15.0001L54.0042 20.5001C54.0042 20.5001 51.9343 17.0871 46.0042 17.0001C40.074 16.9131 36.5042 22.0001 36.5042 22.0001C36.5042 22.0001 33.1194 17.1059 26.0042 17.0001C18.8889 16.8943 13.9959 24.6394 14.0042 30.0001C14.0125 35.3608 17.5042 38.5001 17.5042 38.5001L36.5042 55.5001L55.0042 38.5001C55.0042 38.5001 58.6607 34.0848 59.0042 30.0001C59.3477 25.9154 57.5042 23.0001 57.5042 23.0001L65.5042 15.0001C65.5042 15.0001 53.8604 0.050371 35.5042 0.000142432C17.1481 -0.0500862 0.317325 13.1881 0.00415071 34.0002C-0.309023 54.8124 17.1495 68.4371 35.5042 69.0003C53.8591 69.5635 65.0043 54.5003 65.0043 54.5003ZM52.5043 34.5001L36.5956 48.4299C36.5956 48.4299 22.2464 35.0988 20.5043 33.5001C18.7621 31.9014 18.4863 22.735 25.0043 22.0001C31.5222 21.2651 32.7325 25.9893 33.0043 27.5001C33.276 29.0109 33.6322 30.8818 36.5956 31.0001C39.5341 31.1174 39.7837 29.1973 39.9989 27.5421L40.0043 27.5001C40.2209 25.8356 40.581 25.3323 41.5043 24.0001C42.4276 22.6678 48.996 18.9862 52.5043 25.0001C56.0127 31.014 52.5043 34.5001 52.5043 34.5001Z" fill="currentcolor" fill-rule="evenodd" />
    </g>
    </symbol>

</svg>