<?xml version="1.0" encoding="utf-8"?>
<svg width="65.004" height="69.018" viewBox="0 0 65.004 69.018" fill="none" stroke="none" version="1.1" xmlns:xlink="http://www.w3.org/1999/xlink" xmlns="http://www.w3.org/2000/svg">
  <g id="Group">
    <path id="Vector" d="M54 18.5C57.582 15.2351 59 12 59 12L41 0L20 2.5L3.5 16.5L0 32.5L8.5 52.5L28 62.5L45.5 61L57 53.5L58 50.5L54 45.5L51.5 45.5C51.5 45.5 44.283 52.8311 34.5 52.5C24.717 52.1689 19.5972 48.5462 16.5 45.5C13.4028 42.4538 9.83545 37.9433 11 29.5C12.1646 21.0567 16.418 12.4131 29.5 10.3571C37.7986 9.28924 44.926 11.509 54 18.5Z" style="fill:#FFFFFF;fill-rule:evenodd;mix-blend-mode:normal;" transform="translate(2.504 3.002)" />
    <path id="Vector Subtract" d="M65.0042 54.5023L56.2167 46.0405L54.0042 48.5021L59.0041 54.5023C59.0041 54.5023 50.0315 63.7833 35.5042 64.0021C20.9768 64.2208 5.18457 50.8446 5.00415 34.0022C4.82373 17.1598 19.7791 5.30584 35.5042 5.00206C51.2292 4.69828 59.0041 16.0021 59.0041 16.0021L54.0042 20.5021C54.0042 20.5021 51.9343 17.0891 46.0042 17.0021C40.074 16.915 36.5042 22.0021 36.5042 22.0021C36.5042 22.0021 33.1194 17.1079 26.0042 17.0021C18.8889 16.8963 13.9958 24.6414 14.0041 30.0021C14.0125 35.3627 17.5042 38.5021 17.5042 38.5021L36.5042 55.5021L55.0042 38.5021C55.0042 38.5021 58.6606 34.0868 59.0041 30.0021C59.3477 25.9173 57.5042 23.0021 57.5042 23.0021L65.0042 15.0021C65.0042 15.0021 53.2471 0.197601 35.5042 0.00211303C17.7613 -0.193374 0.317325 13.1901 0.00415071 34.0022C-0.309023 54.8143 17.1495 68.4391 35.5042 69.0023C53.859 69.5655 65.0042 54.5023 65.0042 54.5023ZM52.5043 34.5021L36.5956 48.4319C36.5956 48.4319 22.2464 35.1008 20.5042 33.5021C18.7621 31.9034 18.4863 22.737 25.0043 22.0021C31.5222 21.2671 32.7325 25.9912 33.0043 27.5021C33.276 29.0129 33.6322 30.8837 36.5956 31.0021C39.5341 31.1194 39.7837 29.1993 39.9988 27.5441L40.0043 27.5021C40.2209 25.8375 40.581 25.3343 41.5043 24.0021C42.4276 22.6698 48.996 18.9882 52.5043 25.0021C56.0126 31.016 52.5043 34.5021 52.5043 34.5021Z" style="fill:#CB6469;fill-rule:evenodd;mix-blend-mode:normal;" />
  </g>
</svg>