<!-- Generator: Adobe Illustrator 17.0.0, SVG Export Plug-In  -->
<svg version="1.1"
	 xmlns="http://www.w3.org/2000/svg" xmlns:xlink="http://www.w3.org/1999/xlink" xmlns:a="http://ns.adobe.com/AdobeSVGViewerExtensions/3.0/"
	 x="0px" y="0px" width="373.625px" height="90.192px" viewBox="0 0 373.625 90.192" enable-background="new 0 0 373.625 90.192"
	 xml:space="preserve">
<defs>
</defs>
<g>
	<path fill="#B89112" d="M48.211,18.715c-12.138-7.808-27.566-9.08-33.355,0.233c-22.401,36.043,75.313,81.262,49.916,69.276
		C50.659,81.566,14.847,58.023,3.884,37.731C-3.41,24.229,0.562,10.364,7.625,4.721C27.909-11.485,49.088,19.28,48.211,18.715z"/>
	<path fill="#B89112" d="M95.709,15.953c0,0-12.496-9.181-22.569-4.208c-7.642,3.773-11.025,12.678-12.214,16.759
		c-1.333-1.273-2.761-2.545-4.28-3.792c-2.388-1.962-4.79-3.704-7.118-5.192c0.425-1.325,4.386-12.485,18.766-17.338
		C83.595-2.982,95.709,15.953,95.709,15.953z"/>
	<path fill="#002447" d="M53.945,55.671c-1.017,0-1.807-0.339-2.297-0.79c-0.527-0.452-0.79-0.941-0.941-1.393
		c-1.431,0.941-3.2,2.183-3.953,2.183c-3.163,0-5.083-2.485-5.083-4.819c0-1.957,0.904-2.861,2.861-3.615
		c2.222-0.828,5.121-1.732,5.987-2.485v-1.129c0-2.371-0.904-3.69-2.259-3.69c-0.527,0-0.941,0.226-1.28,0.678
		c-0.414,0.527-0.753,1.431-1.054,2.598c-0.265,0.98-0.829,1.28-1.582,1.28c-1.017,0-2.371-0.903-2.371-1.883
		c0-0.677,0.489-1.167,1.317-1.807c1.431-0.978,4.104-2.259,6.251-2.673c1.544,0,2.673,0.339,3.689,1.092
		c1.619,1.243,1.958,2.861,1.958,4.97V50.4c0,1.77,0.565,2.222,1.205,2.222c0.452,0,0.866-0.113,1.28-0.302l0.376,1.205
		L53.945,55.671z M50.519,46.22c-0.678,0.377-1.28,0.753-2.071,1.168c-1.168,0.602-1.77,1.28-1.77,2.598
		c0,2.071,1.393,2.861,2.26,2.861c0.564,0,0.978-0.15,1.581-0.602V46.22z"/>
	<path fill="#002447" d="M69.685,43.435c-1.017-2.297-2.222-3.841-3.992-3.841c-0.978,0-1.92,0.829-1.92,2.034
		c0,1.168,0.866,2.034,2.786,2.9c3.05,1.317,5.084,2.635,5.084,5.573c0,3.727-3.577,5.572-6.74,5.572
		c-1.995,0-3.953-0.715-4.744-1.28c-0.226-0.602-0.564-3.237-0.564-5.045l1.091-0.114c0.829,2.373,2.598,4.97,4.895,4.97
		c1.205,0,2.034-0.903,2.034-2.032c0-1.092-0.527-2.034-2.824-3.126c-1.77-0.866-4.819-2.334-4.819-5.573
		c0-2.937,2.371-5.308,6.325-5.346c1.733,0,2.749,0.302,3.615,0.678c0.377,0.866,0.829,3.539,0.904,4.292L69.685,43.435z"/>
	<path fill="#002447" d="M87.682,51.605c-1.732,2.447-4.18,4.066-6.476,4.066c-5.158,0-8.17-3.915-8.17-8.02
		c0-2.749,1.43-5.422,3.803-7.191c2.485-1.808,4.932-2.335,6.363-2.335h0.037c1.356,0,2.598,0.414,3.238,0.941
		c0.564,0.377,0.715,0.829,0.678,1.356c0,1.092-0.98,2.071-1.619,2.071c-0.263,0-0.49-0.113-0.829-0.414
		c-1.544-1.355-2.749-1.957-3.803-1.957c-1.468,0-3.163,1.43-3.163,5.459c0,5.007,3.615,6.664,5.197,6.664
		c1.581,0,2.673-0.376,4.029-1.544L87.682,51.605z"/>
	<path fill="#002447" d="M106.208,46.598c0,6.061-4.33,9.073-8.736,9.073c-5.91,0-8.81-4.292-8.81-8.396
		c0-6.063,4.782-9.15,8.999-9.15C102.895,38.125,106.208,42.079,106.208,46.598z M94.046,45.92c0,4.631,1.468,8.283,3.84,8.283
		c1.431,0,2.937-0.903,2.937-6.476c0-5.234-1.317-8.133-3.727-8.133C95.552,39.594,94.046,41.627,94.046,45.92z"/>
	<path fill="#002447" d="M114.756,55.257c-0.64,0.263-1.242,0.414-1.505,0.414c-2.9,0-4.631-1.356-4.631-4.744V40.385h-2.373
		l-0.188-0.453l1.054-1.355h1.507v-2.749l4.292-2.937l0.527,0.263v5.422h3.69c0.413,0.413,0.376,1.505-0.226,1.807h-3.464v9.3
		c0,2.937,1.356,3.276,2.108,3.276c0.641,0,1.243-0.151,1.921-0.452l0.376,1.317L114.756,55.257z"/>
	<path fill="#002447" d="M137.347,51.831c-1.656,2.183-4.179,3.84-6.4,3.84c-4.744,0-7.53-3.84-7.53-7.869
		c0-2.9,1.242-5.422,3.764-7.38c1.958-1.505,4.217-2.108,5.685-2.108c1.507,0,2.749,0.489,3.351,0.978
		c0.49,0.414,0.602,0.753,0.602,1.168c0,0.79-0.828,1.618-1.242,1.618c-0.188,0-0.376-0.113-0.715-0.413
		c-1.131-1.055-2.448-1.544-3.765-1.544c-2.485,0-4.668,2.071-4.668,6.024c0,5.233,3.576,6.964,5.685,6.964
		c1.618,0,2.861-0.452,4.593-2.071L137.347,51.831z"/>
	<path fill="#002447" d="M151.128,55.671c-0.564,0-1.355-0.339-1.769-0.715c-0.49-0.527-0.716-1.054-0.904-1.695
		c-1.505,1.017-3.313,2.41-4.442,2.41c-2.673,0-4.519-2.222-4.519-4.593c0-1.846,0.978-3.012,3.05-3.727
		c2.259-0.753,5.007-1.77,5.835-2.448v-0.678c0-2.71-1.28-4.254-3.162-4.254c-0.753,0-1.319,0.301-1.695,0.753
		c-0.49,0.489-0.829,1.317-1.129,2.484c-0.151,0.602-0.565,0.867-1.092,0.867c-0.678,0-1.656-0.753-1.656-1.619
		c0-0.565,0.49-0.98,1.205-1.507c1.054-0.753,3.501-2.222,5.647-2.635c1.131,0,2.26,0.338,3.088,1.016
		c1.319,1.092,1.695,2.636,1.695,4.594v7.003c0,1.695,0.678,2.259,1.317,2.259c0.453,0,0.98-0.188,1.356-0.413l0.376,0.978
		L151.128,55.671z M148.38,46.183c-0.79,0.414-2.598,1.205-3.388,1.581c-1.468,0.678-2.297,1.394-2.297,2.749
		c0,1.958,1.507,2.9,2.673,2.9c0.98-0.037,2.297-0.678,3.012-1.356V46.183z"/>
	<path fill="#002447" d="M161.107,42.305c1.129-1.883,2.749-3.991,4.556-3.991c1.28,0,2.183,0.978,2.183,1.882
		c0,0.753-0.489,1.507-1.205,1.846c-0.452,0.188-0.79,0.151-1.016-0.075c-0.528-0.565-0.98-0.79-1.582-0.79
		c-0.978,0-2.183,1.129-3.012,3.237v6.891c0,2.484,0.188,2.71,3.088,2.937v0.978h-8.66v-0.978c2.335-0.226,2.599-0.453,2.599-2.937
		V43.51c0-2.485-0.189-2.636-2.334-2.937v-0.829c1.844-0.301,3.501-0.753,5.308-1.544v4.104H161.107z"/>
	<path fill="#002447" d="M187.164,54.241c-0.828,0.15-3.652,0.64-5.836,1.43v-2.447l-2.296,1.356
		c-1.468,0.866-2.485,1.091-2.937,1.091c-3.012,0-6.966-2.749-6.966-8.02c0-5.234,4.593-9.337,9.714-9.337
		c0.527,0,1.618,0.113,2.484,0.413V33.42c0-2.485-0.188-2.598-2.898-2.787V29.73c1.957-0.263,4.48-0.829,5.873-1.317V50.89
		c0,1.957,0.263,2.146,1.656,2.296l1.205,0.114V54.241z M181.327,41.627c-0.903-1.317-2.447-1.92-3.878-1.92
		c-1.732,0-4.895,1.468-4.895,6.927c0,4.48,2.749,6.665,5.158,6.665c1.356,0,2.712-0.602,3.615-1.28V41.627z"/>
	<path fill="#002447" d="M188.784,55.22v-0.978c2.373-0.226,2.636-0.453,2.636-3.012v-7.757c0-2.334-0.114-2.484-2.373-2.861v-0.903
		c1.92-0.302,3.69-0.79,5.346-1.468v12.99c0,2.559,0.263,2.786,2.673,3.012v0.978H188.784z M190.779,33.118
		c0-1.129,0.904-1.958,1.921-1.958c1.054,0,1.882,0.829,1.882,1.958c0,1.017-0.828,1.92-1.92,1.92
		C191.684,35.038,190.779,34.135,190.779,33.118z"/>
	<path fill="#002447" d="M215.48,46.71c0,6.063-4.443,8.961-8.17,8.961c-5.158,0-8.246-4.142-8.246-8.32
		c0-6.213,4.819-9.036,8.246-9.036C211.978,38.315,215.48,42.042,215.48,46.71z M202.566,46.146c0,4.744,2.071,8.283,5.158,8.283
		c2.334,0,4.254-1.732,4.254-6.89c0-4.405-1.769-7.982-5.045-7.982C204.598,39.557,202.566,41.891,202.566,46.146z"/>
	<path fill="#002447" d="M217.176,55.22v-0.978c2.371-0.226,2.71-0.453,2.71-2.937V33.495c0-2.561-0.226-2.673-2.598-2.862V29.73
		c1.958-0.226,4.292-0.866,5.573-1.317v22.892c0,2.484,0.301,2.71,2.71,2.937v0.978H217.176z"/>
	<path fill="#002447" d="M243.946,46.71c0,6.063-4.443,8.961-8.17,8.961c-5.158,0-8.246-4.142-8.246-8.32
		c0-6.213,4.819-9.036,8.246-9.036C240.444,38.315,243.946,42.042,243.946,46.71z M231.032,46.146c0,4.744,2.071,8.283,5.158,8.283
		c2.334,0,4.254-1.732,4.254-6.89c0-4.405-1.769-7.982-5.045-7.982C233.064,39.557,231.032,41.891,231.032,46.146z"/>
	<path fill="#002447" d="M262.961,39.03c-0.339,0.602-1.092,1.581-1.695,1.92l-2.146-0.113c0.715,0.829,1.129,1.995,1.129,3.351
		c0,4.066-3.388,6.024-6.588,6.024c-0.641,0-1.319-0.113-1.921-0.188c-0.527,0.339-1.129,1.016-1.129,1.544
		c0,0.752,0.678,1.468,2.373,1.468c1.356,0,2.71-0.038,3.953-0.038c2.334,0,5.422,0.753,5.422,4.443
		c0,3.803-4.405,7.454-9.414,7.454c-4.179,0-6.476-2.447-6.513-4.593c0-0.829,0.339-1.544,0.903-2.108
		c0.753-0.753,2.222-1.958,3.126-2.636c-1.356-0.414-2.297-1.28-2.787-2.071c-0.339-0.565-0.452-1.205-0.414-1.582
		c1.507-0.564,2.712-1.543,3.314-2.296c-1.695-0.715-3.314-2.485-3.314-5.046c0-4.292,3.841-6.249,6.74-6.249
		c1.28,0,2.522,0.338,3.615,0.941c1.844-0.075,3.764-0.302,5.12-0.528L262.961,39.03z M251.138,56.462
		c-0.978,0.792-1.732,1.846-1.732,2.938c0,2.032,2.185,3.576,4.97,3.576c3.577,0,5.422-1.844,5.422-4.179
		c0-1.28-0.64-2.222-1.732-2.673c-0.941-0.377-2.034-0.49-3.615-0.49C252.645,55.634,251.816,55.859,251.138,56.462z
		 M250.498,43.962c0,2.937,1.431,5.046,3.539,5.046c1.656-0.038,3.125-1.507,3.125-4.48c0-2.975-1.393-5.083-3.539-5.083
		C251.967,39.444,250.498,41.025,250.498,43.962z"/>
	<path fill="#002447" d="M281.863,39.707c-1.995,0.301-2.334,0.602-3.351,2.749c-0.941,1.995-2.108,5.12-4.706,11.332
		c-2.523,6.024-3.351,8.17-3.879,10.204c-0.188,0.715-0.677,0.903-1.205,0.903c-1.054,0-2.145-0.903-2.145-1.807
		c0-0.602,0.338-0.94,0.978-1.355c1.167-0.753,1.92-1.695,2.786-3.351c0.716-1.319,1.017-2.109,1.168-2.598
		c0.188-0.565,0.188-1.055-0.038-1.695c-1.505-4.292-3.2-8.848-4.33-11.522c-0.79-2.071-1.168-2.561-3.238-2.861v-0.941h7.643v0.941
		c-1.732,0.301-1.92,0.678-1.43,2.071l3.425,9.451c1.055-2.561,2.674-7.004,3.465-9.375c0.452-1.431,0.188-1.846-1.958-2.146v-0.941
		h6.815V39.707z"/>
	<path fill="#002447" d="M303.288,39.03c-0.339,0.602-1.092,1.581-1.695,1.92l-2.146-0.113c0.715,0.829,1.129,1.995,1.129,3.351
		c0,4.066-3.388,6.024-6.588,6.024c-0.641,0-1.319-0.113-1.921-0.188c-0.527,0.339-1.129,1.016-1.129,1.544
		c0,0.752,0.678,1.468,2.373,1.468c1.356,0,2.71-0.038,3.953-0.038c2.334,0,5.422,0.753,5.422,4.443
		c0,3.803-4.405,7.454-9.414,7.454c-4.179,0-6.476-2.447-6.513-4.593c0-0.829,0.339-1.544,0.903-2.108
		c0.753-0.753,2.222-1.958,3.125-2.636c-1.355-0.414-2.296-1.28-2.786-2.071c-0.339-0.565-0.452-1.205-0.414-1.582
		c1.507-0.564,2.711-1.543,3.314-2.296c-1.695-0.715-3.314-2.485-3.314-5.046c0-4.292,3.841-6.249,6.74-6.249
		c1.279,0,2.522,0.338,3.615,0.941c1.844-0.075,3.764-0.302,5.12-0.528L303.288,39.03z M291.465,56.462
		c-0.978,0.792-1.732,1.846-1.732,2.938c0,2.032,2.185,3.576,4.97,3.576c3.577,0,5.422-1.844,5.422-4.179
		c0-1.28-0.64-2.222-1.732-2.673c-0.941-0.377-2.034-0.49-3.615-0.49C292.971,55.634,292.142,55.859,291.465,56.462z
		 M290.825,43.962c0,2.937,1.431,5.046,3.539,5.046c1.656-0.038,3.125-1.507,3.125-4.48c0-2.975-1.393-5.083-3.539-5.083
		C292.293,39.444,290.825,41.025,290.825,43.962z"/>
	<path fill="#002447" d="M310.367,42.305c1.129-1.883,2.749-3.991,4.556-3.991c1.28,0,2.183,0.978,2.183,1.882
		c0,0.753-0.489,1.507-1.205,1.846c-0.452,0.188-0.79,0.151-1.016-0.075c-0.528-0.565-0.98-0.79-1.582-0.79
		c-0.978,0-2.183,1.129-3.012,3.237v6.891c0,2.484,0.188,2.71,3.088,2.937v0.978h-8.66v-0.978c2.335-0.226,2.599-0.453,2.599-2.937
		V43.51c0-2.485-0.189-2.636-2.334-2.937v-0.829c1.844-0.301,3.501-0.753,5.308-1.544v4.104H310.367z"/>
	<path fill="#002447" d="M334.766,46.71c0,6.063-4.443,8.961-8.17,8.961c-5.158,0-8.246-4.142-8.246-8.32
		c0-6.213,4.819-9.036,8.246-9.036C331.264,38.315,334.766,42.042,334.766,46.71z M321.852,46.146c0,4.744,2.071,8.283,5.158,8.283
		c2.334,0,4.254-1.732,4.254-6.89c0-4.405-1.769-7.982-5.045-7.982C323.885,39.557,321.852,41.891,321.852,46.146z"/>
	<path fill="#002447" d="M355.251,54.315c-1.733,0.265-3.653,0.792-5.536,1.356l-0.225-0.225v-2.673
		c-0.866,0.64-1.732,1.317-2.787,1.957c-1.091,0.641-1.883,0.941-2.898,0.941c-2.523,0-4.67-1.544-4.67-5.61v-7.38
		c0-2.071-0.15-2.22-2.296-2.635V39.18c1.769-0.114,3.576-0.339,5.383-0.678c-0.113,1.167-0.113,2.937-0.113,5.497v5.045
		c0,3.351,1.619,4.255,3.313,4.255c1.356,0,2.787-0.565,4.067-1.807V42.72c0-2.146-0.226-2.297-2.937-2.673V39.18
		c1.957-0.114,3.915-0.263,5.91-0.678v12.575c0,1.883,0.302,2.146,1.732,2.222l1.055,0.075V54.315z"/>
	<path fill="#002447" d="M365.116,38.879c0.678-0.376,1.393-0.564,1.846-0.564c4.179,0,6.664,3.388,6.664,7.115
		c0,5.685-4.48,9.338-9.375,10.241c-1.092-0.037-2.108-0.414-2.598-0.678v4.933c0,2.861,0.263,3.049,3.2,3.313v1.017h-8.924v-1.017
		c2.41-0.225,2.749-0.452,2.749-2.937V43.284c0-2.447-0.15-2.522-2.484-2.823v-0.904c1.581-0.263,3.689-0.904,5.459-1.619v2.975
		L365.116,38.879z M361.652,52.358c0.829,0.866,2.259,1.468,3.539,1.468c3.163,0,5.271-2.712,5.271-6.966
		c0-4.029-2.296-6.288-5.045-6.288c-1.205,0-2.749,0.828-3.765,1.581V52.358z"/>
</g>
</svg>
